PathFileType	3	(X/Y/Z)	walking_2__view1_aligned.trc
DataRate	CameraRate	NumFrames	NumMarkers	Units	OrigDataRate	OrigDataStartFrame	OrigNumFrames
100.0	100.0	17	19	mm	100.0	3355	6300
Frame#	Time	pelvis			neck			head			hip_left			hip_right			knee_left			knee_right			ankle_left			ankle_right			heel_left			heel_right			toe_left			toe_right			shoulder_left			shoulder_right			elbow_left			elbow_right			wrist_left			wrist_right			
		X1	Y1	Z1	X2	Y2	Z2	X3	Y3	Z3	X4	Y4	Z4	X5	Y5	Z5	X6	Y6	Z6	X7	Y7	Z7	X8	Y8	Z8	X9	Y9	Z9	X10	Y10	Z10	X11	Y11	Z11	X12	Y12	Z12	X13	Y13	Z13	X14	Y14	Z14	X15	Y15	Z15	X16	Y16	Z16	X17	Y17	Z17	X18	Y18	Z18	X19	Y19	Z19	
3355	33.54000	13.199959	934.161276	217.392964	-36.352474	1476.079694	321.535775	-25.775673	1534.548591	476.991524	89.743966	937.768970	222.536986	-63.344395	930.553522	212.249264	98.940575	545.363813	422.946234	-119.070925	492.662339	202.399999	115.429670	134.241877	441.632603	-137.734729	165.311870	-18.974775	119.470081	80.949738	415.605098	-136.011386	140.047291	-67.352891	88.176532	107.165666	632.943446	-131.767325	43.578564	102.911763	143.123552	1457.359765	263.314528	-210.525559	1410.784824	299.569806	197.384896	1181.104702	163.245100	-257.500784	1121.659834	318.376459	247.821258	915.648128	148.863278	-211.912643	938.104227	511.362334
3356	33.55000	15.682683	934.120304	217.361852	-33.964770	1476.035435	321.623026	-23.231931	1534.414516	477.267320	92.132137	937.862224	222.587574	-60.767044	930.378337	212.136391	99.436871	544.232302	420.114022	-117.013522	493.384083	206.126297	115.408134	132.432797	440.181638	-135.107644	169.823660	-22.664485	119.468279	78.899956	414.321129	-133.209741	145.649667	-71.620583	88.112898	106.273268	632.058328	-129.721996	45.373575	96.161417	145.730987	1457.052791	264.246897	-208.115847	1410.575756	298.512770	199.949014	1180.744416	164.540221	-254.305270	1121.384092	315.661790	248.703044	915.528807	151.144369	-210.162539	936.752520	505.898651
3357	33.56000	18.165408	934.079332	217.330739	-31.577065	1475.991177	321.710277	-20.688190	1534.280442	477.543116	94.520309	937.955478	222.638162	-58.189694	930.203152	212.023518	99.933166	543.100790	417.281810	-114.956119	494.105826	209.852595	115.386599	130.623717	438.730672	-132.480558	174.335449	-26.354195	119.466477	76.850174	413.037160	-130.408097	151.252042	-75.888275	88.049263	105.380870	631.173211	-127.676668	47.168586	89.411071	148.338421	1456.745817	265.179266	-205.706135	1410.366689	297.455735	202.513133	1180.384129	165.835341	-251.109756	1121.108350	312.947121	249.584831	915.409486	153.425460	-208.412434	935.400814	500.434968
3358	33.57000	20.648132	934.038361	217.299627	-29.189361	1475.946919	321.797528	-18.144448	1534.146368	477.818912	96.908481	938.048731	222.688751	-55.612344	930.027967	211.910646	100.429462	541.969278	414.449599	-112.898716	494.827570	213.578893	115.365064	128.814637	437.279706	-129.853472	178.847239	-30.043905	119.464675	74.800392	411.753191	-127.606452	156.854417	-80.155967	87.985629	104.488472	630.288093	-125.631339	48.963597	82.660725	150.945856	1456.438843	266.111636	-203.296424	1410.157621	296.398699	205.077251	1180.023843	167.130462	-247.914243	1120.832608	310.232451	250.466618	915.290166	155.706551	-206.662330	934.049107	494.971286
3359	33.58000	23.130857	933.997389	217.268514	-26.801656	1475.902660	321.884779	-15.600706	1534.012294	478.094707	99.296652	938.141985	222.739339	-53.034993	929.852781	211.797773	100.925757	540.837767	411.617387	-110.841313	495.549313	217.305191	115.343528	127.005557	435.828740	-127.226386	183.359029	-33.733615	119.462873	72.750610	410.469222	-124.804808	162.456793	-84.423658	87.921994	103.596075	629.402975	-123.586011	50.758608	75.910378	153.553291	1456.131869	267.044005	-200.886712	1409.948554	295.341663	207.641370	1179.663556	168.425583	-244.718729	1120.556866	307.517782	251.348404	915.170845	157.987642	-204.912226	932.697400	489.507603
3360	33.59000	25.613581	933.956417	217.237402	-24.413951	1475.858402	321.972030	-13.056965	1533.878220	478.370503	101.684824	938.235238	222.789927	-50.457643	929.677596	211.684900	101.422052	539.706255	408.785175	-108.783910	496.271057	221.031489	115.321993	125.196477	434.377775	-124.599300	187.870819	-37.423325	119.461071	70.700828	409.185253	-122.003163	168.059168	-88.691350	87.858360	102.703677	628.517858	-121.540682	52.553619	69.160032	156.160726	1455.824895	267.976374	-198.477000	1409.739486	294.284628	210.205488	1179.303270	169.720703	-241.523215	1120.281124	304.803113	252.230191	915.051524	160.268733	-203.162121	931.345694	484.043920
3361	33.60000	28.096305	933.915445	217.206290	-22.026247	1475.814143	322.059281	-10.513223	1533.744146	478.646299	104.072995	938.328492	222.840515	-47.880292	929.502411	211.572028	101.918348	538.574743	405.952964	-106.726507	496.992800	224.757787	115.300457	123.387397	432.926809	-121.972214	192.382608	-41.113035	119.459269	68.651046	407.901283	-119.201518	173.661543	-92.959042	87.794725	101.811279	627.632740	-119.495354	54.348630	62.409686	158.768161	1455.517921	268.908744	-196.067289	1409.530419	293.227592	212.769606	1178.942983	171.015824	-238.327701	1120.005382	302.088443	253.111977	914.932204	162.549824	-201.412017	929.993987	478.580237
3362	33.61000	30.579030	933.874474	217.175177	-19.638542	1475.769885	322.146532	-7.969481	1533.610072	478.922095	106.461167	938.421745	222.891103	-45.302942	929.327226	211.459155	102.414643	537.443232	403.120752	-104.669104	497.714543	228.484085	115.278922	121.578317	431.475843	-119.345129	196.894398	-44.802745	119.457467	66.601264	406.617314	-116.399874	179.263919	-97.226734	87.731091	100.918881	626.747622	-117.450025	56.143641	55.659340	161.375596	1455.210947	269.841113	-193.657577	1409.321351	292.170556	215.333725	1178.582697	172.310944	-235.132188	1119.729639	299.373774	253.993764	914.812883	164.830915	-199.661913	928.642280	473.116554
3363	33.62000	33.061754	933.833502	217.144065	-17.250838	1475.725627	322.233783	-5.425740	1533.475997	479.197890	108.849338	938.514999	222.941691	-42.725592	929.152040	211.346282	102.910938	536.311720	400.288540	-102.611701	498.436287	232.210383	115.257387	119.769237	430.024877	-116.718043	201.406188	-48.492455	119.455665	64.551482	405.333345	-113.598229	184.866294	-101.494426	87.667456	100.026484	625.862504	-115.404697	57.938652	48.908994	163.983031	1454.903973	270.773482	-191.247865	1409.112284	291.113521	217.897843	1178.222410	173.606065	-231.936674	1119.453897	296.659105	254.875551	914.693562	167.112007	-197.911808	927.290574	467.652871
3364	33.63000	35.544479	933.792530	217.112952	-14.863133	1475.681368	322.321034	-2.881998	1533.341923	479.473686	111.237510	938.608253	222.992279	-40.148241	928.976855	211.233410	103.407234	535.180208	397.456329	-100.554298	499.158030	235.936681	115.235851	117.960157	428.573912	-114.090957	205.917977	-52.182166	119.453862	62.501700	404.049376	-110.796585	190.468669	-105.762117	87.603822	99.134086	624.977387	-113.359368	59.733663	42.158647	166.590466	1454.596999	271.705852	-188.838154	1408.903216	290.056485	220.461962	1177.862124	174.901186	-228.741160	1119.178155	293.944435	255.757337	914.574241	169.393098	-196.161704	925.938867	462.189188
3365	33.64000	38.027203	933.751558	217.081840	-12.475428	1475.637110	322.408285	-0.338256	1533.207849	479.749482	113.625682	938.701506	223.042867	-37.570891	928.801670	211.120537	103.903529	534.048697	394.624117	-98.496895	499.879774	239.662978	115.214316	116.151077	427.122946	-111.463871	210.429767	-55.871876	119.452060	60.451917	402.765407	-107.994940	196.071045	-110.029809	87.540187	98.241688	624.092269	-111.314040	61.528674	35.408301	169.197900	1454.290025	272.638221	-186.428442	1408.694149	288.999449	223.026080	1177.501837	176.196306	-225.545646	1118.902413	291.229766	256.639124	914.454921	171.674189	-194.411600	924.587160	456.725505
3366	33.65000	41.226638	933.772723	215.995394	-9.207542	1475.761257	321.371119	2.513625	1533.666702	478.764699	116.744036	938.801195	222.036856	-34.290414	928.744304	209.953683	105.522532	532.950566	389.608307	-96.008865	501.560357	244.876730	114.958172	115.744470	418.959574	-108.673229	213.603487	-51.347557	118.934666	60.367547	394.274952	-105.006130	199.671390	-105.639425	87.697258	96.458509	615.221787	-109.450678	63.326511	38.792717	172.758746	1453.976142	272.926683	-183.009185	1408.954672	286.434262	227.423278	1177.090729	178.220116	-221.777584	1119.204786	286.320941	259.773483	914.249233	176.083752	-192.742238	923.015605	447.949998
3367	33.66000	44.426073	933.793888	214.908948	-5.939655	1475.885404	320.333953	5.365506	1534.125555	477.779916	119.862391	938.900885	221.030846	-31.009937	928.686939	208.786830	107.141534	531.852436	384.592496	-93.520835	503.240940	250.090481	114.702028	115.337863	410.796203	-105.882587	216.777206	-46.823238	118.417272	60.283177	385.784496	-102.017320	203.271735	-101.249040	87.854328	94.675330	606.351304	-107.587317	65.124348	42.177132	176.319592	1453.662259	273.215145	-179.589928	1409.215195	283.869075	231.820476	1176.679621	180.243925	-218.009523	1119.507159	281.412116	262.907843	914.043545	180.493315	-191.072876	921.444049	439.174491
3368	33.67000	47.625508	933.815053	213.822502	-2.671768	1476.009551	319.296787	8.217387	1534.584408	476.795133	122.980745	939.000574	220.024835	-27.729460	928.629574	207.619976	108.760537	530.754305	379.576686	-91.032804	504.921523	255.304232	114.445884	114.931256	402.632832	-103.091944	219.950925	-42.298920	117.899878	60.198807	377.294041	-99.028510	206.872081	-96.858655	88.011398	92.892151	597.480822	-105.723956	66.922185	45.561548	179.880437	1453.348376	273.503608	-176.170671	1409.475718	281.303887	236.217674	1176.268512	182.267734	-214.241461	1119.809532	276.503291	266.042202	913.837857	184.902877	-189.403514	919.872493	430.398985
3369	33.68000	50.824943	933.836218	212.736056	0.596118	1476.133698	318.259621	11.069268	1535.043261	475.810350	126.099100	939.100263	219.018824	-24.448983	928.572208	206.453122	110.379539	529.656174	374.560876	-88.544774	506.602106	260.517983	114.189739	114.524649	394.469460	-100.301302	223.124645	-37.774601	117.382484	60.114436	368.803586	-96.039700	210.472426	-92.468271	88.168469	91.108972	588.610340	-103.860594	68.720022	48.945963	183.441283	1453.034492	273.792070	-172.751414	1409.736241	278.738700	240.614872	1175.857404	184.291543	-210.473399	1120.111905	271.594466	269.176561	913.632169	189.312440	-187.734153	918.300937	421.623478
3370	33.69000	54.024378	933.857383	211.649610	3.864005	1476.257845	317.222455	13.921149	1535.502113	474.825567	129.217454	939.199952	218.012814	-21.168506	928.514843	205.286269	111.998541	528.558044	369.545065	-86.056743	508.282690	265.731735	113.933595	114.118041	386.306089	-97.510660	226.298364	-33.250283	116.865090	60.030066	360.313131	-93.050890	214.072771	-88.077886	88.325539	89.325793	579.739857	-101.997233	70.517859	52.330378	187.002129	1452.720609	274.080532	-169.332157	1409.996765	276.173513	245.012070	1175.446296	186.315352	-206.705337	1120.414278	266.685642	272.310921	913.426481	193.722003	-186.064791	916.729381	412.847972
3371	33.70000	57.223813	933.878548	210.563164	7.131892	1476.381992	316.185289	16.773030	1535.960966	473.840784	132.335809	939.299641	217.006803	-17.888029	928.457478	204.119415	113.617544	527.459913	364.529255	-83.568713	509.963273	270.945486	113.677451	113.711434	378.142717	-94.720018	229.472084	-28.725964	116.347696	59.945696	351.822675	-90.062080	217.673117	-83.687502	88.482609	87.542613	570.869375	-100.133872	72.315696	55.714794	190.562975	1452.406726	274.368995	-165.912900	1410.257288	273.608325	249.409268	1175.035187	188.339161	-202.937275	1120.716651	261.776817	275.445280	913.220793	198.131566	-184.395429	915.157825	404.072465
